<?xml version="1.0" encoding="UTF-8" standalone="no"?>
<svg
   width="428"
   height="428"
   viewBox="0 0 428 428"
   version="1.1"
   id="svg1"
   xml:space="preserve"
   xmlns="http://www.w3.org/2000/svg"
   xmlns:svg="http://www.w3.org/2000/svg"><defs
   id="defs1" /><g
   id="logo"
   style="display:inline"
   transform="translate(-36.125,-35.875)"><g
     id="icon"><path
       id="path18"
       style="display:inline;opacity:1;fill:#e14a6d;fill-opacity:1;fill-rule:evenodd;stroke:none;stroke-width:0.194537;stroke-dasharray:none;stroke-opacity:1"
       d="m 250.125,35.875 a 214,214 0 0 0 -214,214 214,214 0 0 0 41.212891,125.36914 L 103.70117,341.49805 A 172.84727,172.91135 0 0 1 92.898438,321.70508 172.84727,172.91135 0 0 1 84.279297,298.58984 172.84727,172.91135 0 0 1 79.037109,274.48242 172.84727,172.91135 0 0 1 77.277344,249.875 a 172.84727,172.91135 0 0 1 1.759765,-24.60742 172.84727,172.91135 0 0 1 5.242188,-24.10742 172.84727,172.91135 0 0 1 8.619141,-23.11524 172.84727,172.91135 0 0 1 11.818362,-21.65234 172.84727,172.91135 0 0 1 14.77929,-19.75 172.84727,172.91135 0 0 1 17.4375,-17.44531 172.84727,172.91135 0 0 1 19.74219,-14.78516 172.84727,172.91135 0 0 1 21.64649,-11.822266 172.84727,172.91135 0 0 1 23.10546,-8.621094 172.84727,172.91135 0 0 1 24.09766,-5.244141 172.84727,172.91135 0 0 1 24.59961,-1.761718 172.84727,172.91135 0 0 1 8.48047,0.208984 172.84727,172.91135 0 0 1 8.46094,0.625 172.84727,172.91135 0 0 1 8.41992,1.039063 172.84727,172.91135 0 0 1 8.35937,1.449218 172.84727,172.91135 0 0 1 8.27735,1.861328 172.84727,172.91135 0 0 1 8.17773,2.261719 172.84727,172.91135 0 0 1 4.89844,1.621094 L 331.74023,52.056641 A 214,214 0 0 0 250.125,35.875 Z m 101.95703,25.880859 -25.75781,32.964844 a 172.84727,172.91135 0 0 1 5.28125,2.660156 172.84727,172.91135 0 0 1 2.9082,1.648438 L 360.0918,66.291016 a 214,214 0 0 0 -8.00977,-4.535157 z m 26.31055,16.847657 -25.30469,32.386714 a 172.84727,172.91135 0 0 1 0.002,0.002 172.84727,172.91135 0 0 1 6.6875,5.2207 172.84727,172.91135 0 0 1 0.46875,0.4043 l 25.32422,-32.412112 a 214,214 0 0 0 -7.17773,-5.601562 z m 23.50976,20.429687 -25.58398,32.746097 a 172.84727,172.91135 0 0 1 1.87891,1.97461 172.84727,172.91135 0 0 1 4.26757,4.94921 L 408.25,105.69922 a 214,214 0 0 0 -6.34766,-6.666017 z m 20.63672,24.109377 -26.57617,34.01758 a 172.84727,172.91135 0 0 1 2.41797,3.82031 172.84727,172.91135 0 0 1 4.18164,7.38476 172.84727,172.91135 0 0 1 3.81445,7.58008 172.84727,172.91135 0 0 1 3.4375,7.75977 172.84727,172.91135 0 0 1 3.05469,7.91797 172.84727,172.91135 0 0 1 2.66016,8.05859 172.84727,172.91135 0 0 1 2.26367,8.17969 172.84727,172.91135 0 0 1 1.85742,8.28125 172.84727,172.91135 0 0 1 1.45117,8.36133 172.84727,172.91135 0 0 1 1.03906,8.42187 172.84727,172.91135 0 0 1 0.62305,8.46484 172.84727,172.91135 0 0 1 0.20899,8.48438 172.84727,172.91135 0 0 1 -1.75977,24.60742 172.84727,172.91135 0 0 1 -5.24219,24.10742 172.84727,172.91135 0 0 1 -8.61914,23.11524 172.84727,172.91135 0 0 1 -11.81836,21.65234 172.84727,172.91135 0 0 1 -14.77929,19.75 172.84727,172.91135 0 0 1 -17.4375,17.44531 172.84727,172.91135 0 0 1 -19.74219,14.78516 172.84727,172.91135 0 0 1 -21.64649,11.82227 172.84727,172.91135 0 0 1 -23.10546,8.62109 172.84727,172.91135 0 0 1 -24.09766,5.24414 172.84727,172.91135 0 0 1 -24.59961,1.76172 172.84727,172.91135 0 0 1 -24.59961,-1.76172 172.84727,172.91135 0 0 1 -24.09766,-5.24414 172.84727,172.91135 0 0 1 -7.29882,-2.72266 l -26.46875,33.87891 a 214,214 0 0 0 82.46484,16.9375 214,214 0 0 0 214,-214 214,214 0 0 0 -41.58594,-126.73242 z M 117.16797,359.99609 91.380859,393.00195 a 214,214 0 0 0 6.486329,6.48633 l 25.443362,-32.56445 a 172.84727,172.91135 0 0 1 -3.81446,-3.81641 172.84727,172.91135 0 0 1 -2.32812,-3.11133 z m 22.06641,22.2793 -25.25391,32.32227 a 214,214 0 0 0 7.29101,5.45703 l 25.25196,-32.32031 a 172.84727,172.91135 0 0 1 -7.28906,-5.45899 z m 25.73046,17.58984 -25.58398,32.74219 a 214,214 0 0 0 8.10156,4.42383 l 25.58008,-32.74414 a 172.84727,172.91135 0 0 1 -8.09766,-4.42188 z" /><path
       style="display:inline;opacity:1;fill:#afe3fe;fill-opacity:1;fill-rule:evenodd;stroke:none;stroke-width:0.2;stroke-dasharray:none;stroke-opacity:1"
       d="M 279,112 254.5,232.5 H 328 L 221,388 245.5,267.5 H 172 Z"
       id="path134" /></g></g>
         <animateTransform
   href="#path18"
   attributeName="transform"
   type="rotate"
   from="0 250 250"
   to="360 250 250"
   dur="10s"
   repeatCount="indefinite" />
  </svg>
